<?xml version="1.0" standalone="no"?>
<!DOCTYPE svg PUBLIC "-//W3C//DTD SVG 20010904//EN"
 "http://www.w3.org/TR/2001/REC-SVG-20010904/DTD/svg10.dtd">
<svg version="1.0" xmlns="http://www.w3.org/2000/svg"
 width="512.000000pt" height="512.000000pt" viewBox="0 0 512.000000 512.000000"
 preserveAspectRatio="xMidYMid meet">

<g transform="translate(0.000000,512.000000) scale(0.100000,-0.100000)"
fill="#000000" stroke="none">
<path d="M735 5081 l-480 -6 -59 -30 c-103 -52 -152 -130 -167 -268 -7 -60
-12 -870 -16 -2308 l-5 -2215 30 -60 c59 -116 107 -139 312 -148 80 -3 1129
-11 2331 -17 l2187 -11 62 33 c71 37 135 105 150 158 27 91 32 656 26 2654 -6
1986 -7 2029 -26 2066 -23 46 -71 96 -112 117 -17 9 -70 20 -117 26 -100 11
-3385 18 -4116 9z m3895 -1379 c0 -8 -138 -112 -845 -636 -1060 -785 -1178
-871 -1199 -863 -33 13 -2006 1477 -2006 1489 0 11 260 13 2243 16 994 1 1807
-2 1807 -6z m-3800 -337 c190 -143 521 -392 735 -555 521 -396 997 -754 1013
-764 8 -5 30 3 55 20 57 38 797 596 1205 909 184 141 444 339 580 442 l247
186 7 -38 c5 -20 7 -573 6 -1228 l-3 -1192 -2111 -3 -2111 -2 -7 1062 c-7 945
-4 1384 10 1427 3 9 8 10 17 4 6 -5 167 -126 357 -268z"/>
</g>
</svg>
