<svg width="350" height="81" viewBox="0 0 350 81" fill="none" xmlns="http://www.w3.org/2000/svg">
<path d="M92.5156 12.7734C92.5156 13.4108 92.4368 13.9801 92.2793 14.4814C92.1217 14.9827 91.9069 15.4268 91.6348 15.8135C91.3698 16.193 91.0618 16.5189 90.7109 16.791C90.36 17.0632 89.9912 17.2887 89.6045 17.4678C89.2249 17.6396 88.8382 17.765 88.4443 17.8438C88.0576 17.9225 87.6924 17.9619 87.3486 17.9619L93.1816 23H88.8633L83.041 17.9619H81.0322V15.1689H87.3486C87.6995 15.1403 88.0182 15.0687 88.3047 14.9541C88.5983 14.8324 88.849 14.6712 89.0566 14.4707C89.2715 14.2702 89.4362 14.0303 89.5508 13.751C89.6654 13.4645 89.7227 13.1387 89.7227 12.7734V11.0117C89.7227 10.8542 89.7012 10.736 89.6582 10.6572C89.6224 10.5713 89.5723 10.5104 89.5078 10.4746C89.4505 10.4316 89.3861 10.4066 89.3145 10.3994C89.25 10.3923 89.1891 10.3887 89.1318 10.3887H79.915V23H77.1221V9.00293C77.1221 8.80957 77.1579 8.62695 77.2295 8.45508C77.3011 8.2832 77.3978 8.13281 77.5195 8.00391C77.6484 7.875 77.7988 7.77474 77.9707 7.70312C78.1426 7.63151 78.3288 7.5957 78.5293 7.5957H89.1318C89.7549 7.5957 90.2812 7.71029 90.7109 7.93945C91.1406 8.16146 91.488 8.44434 91.7529 8.78809C92.0251 9.12467 92.2184 9.48991 92.333 9.88379C92.4548 10.2777 92.5156 10.6465 92.5156 10.9902V12.7734ZM123.392 21.5928C123.392 21.7933 123.356 21.9795 123.285 22.1514C123.213 22.3232 123.113 22.4736 122.984 22.6025C122.855 22.7243 122.705 22.821 122.533 22.8926C122.361 22.9642 122.178 23 121.985 23H115.69C115.096 23 114.494 22.9355 113.885 22.8066C113.277 22.6777 112.686 22.4808 112.113 22.2158C111.547 21.9437 111.014 21.5999 110.512 21.1846C110.011 20.7692 109.57 20.2786 109.191 19.7129C108.819 19.14 108.525 18.4883 108.31 17.7578C108.095 17.0202 107.988 16.2002 107.988 15.2979V7.5957H110.781V15.2979C110.781 16.0856 110.888 16.7516 111.103 17.2959C111.325 17.8402 111.604 18.2949 111.941 18.6602C112.278 19.0254 112.646 19.3118 113.047 19.5195C113.448 19.7272 113.828 19.8812 114.186 19.9814C114.551 20.0817 114.87 20.1462 115.142 20.1748C115.421 20.1963 115.604 20.207 115.69 20.207H120.599V7.5957H123.392V21.5928ZM153.549 10.3887H147.394V23H144.601V10.3887H138.435V7.5957H153.549V10.3887ZM183.706 23H180.913V19.2188H171.094V23H168.301V15.2979C168.301 14.1735 168.495 13.1387 168.881 12.1934C169.268 11.248 169.805 10.4352 170.493 9.75488C171.18 9.07454 171.993 8.5446 172.931 8.16504C173.869 7.78548 174.893 7.5957 176.003 7.5957H182.298C182.492 7.5957 182.674 7.63151 182.846 7.70312C183.018 7.77474 183.169 7.875 183.297 8.00391C183.426 8.13281 183.527 8.2832 183.598 8.45508C183.67 8.62695 183.706 8.80957 183.706 9.00293V23ZM171.094 16.4258H180.913V10.3887H176.003C175.918 10.3887 175.735 10.403 175.456 10.4316C175.183 10.4531 174.865 10.514 174.5 10.6143C174.141 10.7145 173.762 10.8685 173.361 11.0762C172.96 11.2839 172.591 11.5703 172.254 11.9355C171.918 12.3008 171.639 12.7591 171.417 13.3105C171.202 13.8548 171.094 14.5173 171.094 15.2979V16.4258ZM249.909 16.5547H239.833V14.041H249.909V16.5547ZM318.723 19.0791C318.723 19.8024 318.591 20.4147 318.326 20.916C318.068 21.4102 317.742 21.8148 317.348 22.1299C316.962 22.4378 316.539 22.6598 316.081 22.7959C315.622 22.932 315.196 23 314.802 23H305.843V20.207H314.802C315.182 20.207 315.461 20.1104 315.64 19.917C315.827 19.7236 315.92 19.4443 315.92 19.0791V16.7051H305.843V13.8906H315.92V11.5381C315.92 10.7718 315.547 10.3887 314.802 10.3887H305.843V7.5957H314.802C315.282 7.5957 315.712 7.65658 316.091 7.77832C316.471 7.90007 316.804 8.06478 317.09 8.27246C317.384 8.47298 317.635 8.70573 317.842 8.9707C318.05 9.23568 318.218 9.51497 318.347 9.80859C318.476 10.0951 318.569 10.3887 318.627 10.6895C318.691 10.9831 318.723 11.2588 318.723 11.5166V19.0791ZM348.504 19.0791C348.504 19.3441 348.472 19.6234 348.407 19.917C348.35 20.2106 348.253 20.5042 348.117 20.7979C347.988 21.0843 347.82 21.36 347.612 21.625C347.405 21.89 347.154 22.1263 346.861 22.334C346.574 22.5345 346.241 22.6956 345.862 22.8174C345.482 22.9391 345.056 23 344.583 23H338.267C337.88 23 337.458 22.932 336.999 22.7959C336.541 22.6598 336.115 22.4378 335.721 22.1299C335.334 21.8148 335.008 21.4102 334.743 20.916C334.486 20.4147 334.357 19.8024 334.357 19.0791V17.833C334.357 17.5609 334.385 17.2744 334.443 16.9736C334.507 16.6729 334.604 16.3757 334.733 16.082C334.869 15.7884 335.041 15.5091 335.248 15.2441C335.456 14.9792 335.707 14.75 336 14.5566C335.871 14.2559 335.775 13.9515 335.71 13.6436C335.646 13.3356 335.613 13.0456 335.613 12.7734V11.5166C335.613 10.8005 335.742 10.1917 336 9.69043C336.265 9.18913 336.591 8.78451 336.978 8.47656C337.372 8.16862 337.798 7.94661 338.256 7.81055C338.714 7.66732 339.137 7.5957 339.524 7.5957H343.305C343.785 7.5957 344.214 7.65658 344.594 7.77832C344.981 7.90007 345.317 8.06478 345.604 8.27246C345.897 8.47298 346.144 8.70573 346.345 8.9707C346.553 9.23568 346.721 9.51497 346.85 9.80859C346.979 10.0951 347.072 10.3887 347.129 10.6895C347.194 10.9831 347.226 11.2588 347.226 11.5166V12.7734C347.226 13.4753 347.1 14.084 346.85 14.5996C347.079 14.75 347.294 14.929 347.494 15.1367C347.695 15.3372 347.87 15.57 348.021 15.835C348.171 16.0999 348.289 16.4007 348.375 16.7373C348.461 17.0667 348.504 17.432 348.504 17.833V19.0791ZM344.433 11.5381C344.433 11.1585 344.336 10.8721 344.143 10.6787C343.949 10.4854 343.67 10.3887 343.305 10.3887H339.545C339.166 10.3887 338.883 10.4854 338.696 10.6787C338.517 10.8721 338.428 11.1514 338.428 11.5166V12.7734C338.428 13.1458 338.521 13.4251 338.707 13.6113C338.901 13.7975 339.173 13.8906 339.524 13.8906H343.305C343.684 13.8906 343.967 13.7975 344.154 13.6113C344.34 13.418 344.433 13.1387 344.433 12.7734V11.5381ZM345.679 17.833C345.679 17.4749 345.579 17.1992 345.378 17.0059C345.185 16.8053 344.92 16.7051 344.583 16.7051H338.267C337.923 16.7051 337.651 16.8125 337.45 17.0273C337.25 17.2422 337.15 17.5107 337.15 17.833V19.0791C337.15 19.4229 337.253 19.6986 337.461 19.9062C337.676 20.1068 337.945 20.207 338.267 20.207H344.583C344.941 20.207 345.213 20.0996 345.4 19.8848C345.586 19.6699 345.679 19.4014 345.679 19.0791V17.833Z" fill="black"/>
<line x1="76" y1="31.5" x2="350" y2="31.5" stroke="url(#paint0_linear)"/>
<path d="M87.6016 50.0273C87.6016 50.4619 87.5479 50.8501 87.4404 51.1919C87.333 51.5337 87.1865 51.8364 87.001 52.1001C86.8203 52.3589 86.6104 52.5811 86.3711 52.7666C86.1318 52.9521 85.8804 53.106 85.6167 53.228C85.3579 53.3452 85.0942 53.4307 84.8257 53.4844C84.562 53.5381 84.313 53.5649 84.0786 53.5649L88.0557 57H85.1113L81.1416 53.5649H79.772V51.6606H84.0786C84.3179 51.6411 84.5352 51.5923 84.7305 51.5142C84.9307 51.4312 85.1016 51.3213 85.2432 51.1846C85.3896 51.0479 85.502 50.8843 85.5801 50.6938C85.6582 50.4985 85.6973 50.2764 85.6973 50.0273V48.8262C85.6973 48.7188 85.6826 48.6382 85.6533 48.5845C85.6289 48.5259 85.5947 48.4844 85.5508 48.46C85.5117 48.4307 85.4678 48.4136 85.4189 48.4087C85.375 48.4038 85.3335 48.4014 85.2944 48.4014H79.0103V57H77.106V47.4565C77.106 47.3247 77.1304 47.2002 77.1792 47.083C77.228 46.9658 77.2939 46.8633 77.377 46.7754C77.4648 46.6875 77.5674 46.6191 77.6846 46.5703C77.8018 46.5215 77.9287 46.4971 78.0654 46.4971H85.2944C85.7192 46.4971 86.0781 46.5752 86.3711 46.7314C86.6641 46.8828 86.9009 47.0757 87.0815 47.3101C87.2671 47.5396 87.3989 47.7886 87.4771 48.0571C87.5601 48.3257 87.6016 48.5771 87.6016 48.8115V50.0273ZM98.1938 51.7046C98.1938 51.9683 98.1475 52.2539 98.0547 52.5615C97.9619 52.8643 97.8105 53.1475 97.6006 53.4111C97.3955 53.6699 97.1245 53.8872 96.7876 54.063C96.4556 54.2388 96.0503 54.3267 95.5718 54.3267H92.1367V52.5176H95.5718C95.8306 52.5176 96.0308 52.4395 96.1724 52.2832C96.314 52.1221 96.3848 51.9243 96.3848 51.6899C96.3848 51.4409 96.3042 51.2456 96.1431 51.104C95.9868 50.9624 95.7964 50.8916 95.5718 50.8916H92.1367C91.8779 50.8916 91.6777 50.9722 91.5361 51.1333C91.3945 51.2896 91.3237 51.4849 91.3237 51.7192V54.3779C91.3237 54.6318 91.4019 54.8296 91.5581 54.9712C91.7192 55.1128 91.917 55.1836 92.1514 55.1836H95.5718V57H92.1367C91.873 57 91.5874 56.9536 91.2798 56.8608C90.9771 56.7681 90.6938 56.6191 90.4302 56.4141C90.1714 56.2041 89.9541 55.9331 89.7783 55.6011C89.6025 55.2642 89.5146 54.8564 89.5146 54.3779V51.7046C89.5146 51.4409 89.561 51.1577 89.6538 50.855C89.7466 50.5474 89.8955 50.2642 90.1006 50.0054C90.3105 49.7417 90.5815 49.522 90.9136 49.3462C91.2505 49.1704 91.6582 49.0825 92.1367 49.0825H95.5718C95.8354 49.0825 96.1187 49.1289 96.4214 49.2217C96.729 49.3145 97.0122 49.4658 97.271 49.6758C97.5347 49.8809 97.7544 50.1519 97.9302 50.4888C98.106 50.8208 98.1938 51.2261 98.1938 51.7046ZM108.581 54.3267C108.581 54.6538 108.54 54.9492 108.457 55.2129C108.374 55.4717 108.264 55.7012 108.127 55.9014C107.99 56.0967 107.832 56.2651 107.651 56.4067C107.47 56.5435 107.28 56.6558 107.08 56.7437C106.884 56.8315 106.687 56.8975 106.486 56.9414C106.286 56.9805 106.096 57 105.915 57H102.48V55.0957H105.915C106.169 55.0957 106.359 55.0298 106.486 54.8979C106.613 54.7661 106.677 54.5757 106.677 54.3267V51.7632C106.677 51.4995 106.611 51.3042 106.479 51.1772C106.352 51.0503 106.164 50.9868 105.915 50.9868H102.495C102.236 50.9868 102.041 51.0527 101.909 51.1846C101.777 51.3115 101.711 51.4995 101.711 51.7485V59.4756H99.8066V51.7485C99.8066 51.4214 99.8481 51.1284 99.9312 50.8696C100.014 50.6108 100.124 50.3838 100.261 50.1885C100.402 49.9883 100.563 49.8198 100.744 49.6831C100.925 49.5415 101.113 49.4268 101.308 49.3389C101.508 49.251 101.708 49.1875 101.909 49.1484C102.114 49.1045 102.304 49.0825 102.48 49.0825H105.915C106.242 49.0825 106.535 49.124 106.794 49.207C107.053 49.29 107.28 49.3999 107.475 49.5366C107.675 49.6733 107.844 49.832 107.98 50.0127C108.122 50.1934 108.237 50.3838 108.325 50.584C108.413 50.7793 108.476 50.9771 108.515 51.1772C108.559 51.3774 108.581 51.5679 108.581 51.7485V54.3267ZM119.239 56.0405C119.239 56.1772 119.215 56.3042 119.166 56.4214C119.117 56.5386 119.049 56.6411 118.961 56.729C118.878 56.812 118.778 56.8779 118.661 56.9268C118.548 56.9756 118.426 57 118.294 57H113.988C113.753 57 113.502 56.9731 113.233 56.9194C112.97 56.8657 112.708 56.7803 112.45 56.6631C112.191 56.541 111.939 56.3896 111.695 56.209C111.456 56.0234 111.246 55.8013 111.065 55.5425C110.885 55.2788 110.738 54.9761 110.626 54.6343C110.519 54.2925 110.465 53.9067 110.465 53.4771V49.0825H112.369V53.4771C112.369 53.7261 112.411 53.9507 112.494 54.1509C112.582 54.3462 112.699 54.5146 112.845 54.6562C112.992 54.7979 113.163 54.9077 113.358 54.9858C113.558 55.0591 113.773 55.0957 114.002 55.0957H117.335V49.0825H119.239V56.0405ZM129.919 51.7046C129.919 51.9683 129.873 52.2539 129.78 52.5615C129.688 52.8643 129.536 53.1475 129.326 53.4111C129.121 53.6699 128.85 53.8872 128.513 54.063C128.181 54.2388 127.776 54.3267 127.297 54.3267H123.862V52.5176H127.297C127.556 52.5176 127.756 52.4395 127.898 52.2832C128.04 52.1221 128.11 51.9243 128.11 51.6899C128.11 51.4409 128.03 51.2456 127.869 51.104C127.712 50.9624 127.522 50.8916 127.297 50.8916H123.862C123.604 50.8916 123.403 50.9722 123.262 51.1333C123.12 51.2896 123.049 51.4849 123.049 51.7192V54.3779C123.049 54.6318 123.127 54.8296 123.284 54.9712C123.445 55.1128 123.643 55.1836 123.877 55.1836H127.297V57H123.862C123.599 57 123.313 56.9536 123.005 56.8608C122.703 56.7681 122.419 56.6191 122.156 56.4141C121.897 56.2041 121.68 55.9331 121.504 55.6011C121.328 55.2642 121.24 54.8564 121.24 54.3779V51.7046C121.24 51.4409 121.287 51.1577 121.379 50.855C121.472 50.5474 121.621 50.2642 121.826 50.0054C122.036 49.7417 122.307 49.522 122.639 49.3462C122.976 49.1704 123.384 49.0825 123.862 49.0825H127.297C127.561 49.0825 127.844 49.1289 128.147 49.2217C128.455 49.3145 128.738 49.4658 128.997 49.6758C129.26 49.8809 129.48 50.1519 129.656 50.4888C129.832 50.8208 129.919 51.2261 129.919 51.7046ZM139.23 54.3267C139.23 54.6538 139.188 54.9492 139.105 55.2129C139.022 55.4717 138.913 55.7012 138.776 55.9014C138.639 56.0967 138.48 56.2651 138.3 56.4067C138.119 56.5435 137.929 56.6558 137.729 56.7437C137.533 56.8315 137.333 56.8975 137.128 56.9414C136.928 56.9805 136.737 57 136.557 57H131.4V55.0957H136.542C136.801 55.0957 136.996 55.0298 137.128 54.8979C137.26 54.7661 137.326 54.5757 137.326 54.3267C137.301 53.8188 137.045 53.5649 136.557 53.5649H133.605C133.185 53.5649 132.829 53.4917 132.536 53.3452C132.243 53.1987 132.003 53.0156 131.818 52.7959C131.637 52.5762 131.505 52.3394 131.422 52.0854C131.344 51.8315 131.305 51.5947 131.305 51.375C131.305 50.9502 131.381 50.5938 131.532 50.3057C131.684 50.0127 131.874 49.7759 132.104 49.5952C132.333 49.4146 132.582 49.2852 132.851 49.207C133.119 49.124 133.371 49.0825 133.605 49.0825H138.285V50.9868H133.62C133.522 50.9868 133.444 50.999 133.385 51.0234C133.332 51.043 133.29 51.0723 133.261 51.1113C133.236 51.1455 133.222 51.1846 133.217 51.2285C133.212 51.2676 133.209 51.3066 133.209 51.3457C133.214 51.4238 133.229 51.4849 133.253 51.5288C133.278 51.5728 133.307 51.6045 133.341 51.624C133.38 51.6436 133.422 51.6558 133.466 51.6606C133.515 51.6606 133.561 51.6606 133.605 51.6606H136.557C137.045 51.6606 137.46 51.7485 137.802 51.9243C138.144 52.1001 138.419 52.3223 138.629 52.5908C138.839 52.8545 138.991 53.1426 139.083 53.4551C139.181 53.7676 139.23 54.0581 139.23 54.3267ZM148.145 50.9868H144.82V57H142.894V50.9868H140.418V49.0825H142.894V46.4971H144.82V49.0825H148.145V50.9868ZM158.386 54.3267C158.386 54.6538 158.344 54.9492 158.261 55.2129C158.178 55.4717 158.068 55.7012 157.932 55.9014C157.795 56.0967 157.636 56.2651 157.456 56.4067C157.275 56.5435 157.084 56.6558 156.884 56.7437C156.689 56.8315 156.489 56.8975 156.284 56.9414C156.083 56.9805 155.893 57 155.712 57H152.277C152.014 57 151.726 56.9536 151.413 56.8608C151.101 56.7681 150.81 56.6167 150.542 56.4067C150.278 56.1919 150.056 55.916 149.875 55.5791C149.699 55.2373 149.611 54.8198 149.611 54.3267V51.7485C149.611 51.2603 149.699 50.8477 149.875 50.5107C150.056 50.1689 150.278 49.8931 150.542 49.6831C150.81 49.4683 151.101 49.3145 151.413 49.2217C151.726 49.1289 152.014 49.0825 152.277 49.0825H155.712C156.201 49.0825 156.616 49.1704 156.958 49.3462C157.299 49.522 157.575 49.7441 157.785 50.0127C157.995 50.2764 158.146 50.5645 158.239 50.877C158.337 51.1895 158.386 51.48 158.386 51.7485V54.3267ZM156.481 51.7632C156.481 51.4995 156.416 51.3042 156.284 51.1772C156.152 51.0503 155.961 50.9868 155.712 50.9868H152.292C152.038 50.9868 151.845 51.0527 151.713 51.1846C151.582 51.3115 151.516 51.4995 151.516 51.7485V54.3267C151.516 54.5757 151.582 54.7661 151.713 54.8979C151.845 55.0298 152.038 55.0957 152.292 55.0957H155.712C155.971 55.0957 156.164 55.0298 156.291 54.8979C156.418 54.7661 156.481 54.5757 156.481 54.3267V51.7632ZM168.041 54.3267C168.041 54.6538 167.999 54.9492 167.916 55.2129C167.833 55.4717 167.723 55.7012 167.586 55.9014C167.45 56.0967 167.291 56.2651 167.11 56.4067C166.93 56.5435 166.739 56.6558 166.539 56.7437C166.344 56.8315 166.144 56.8975 165.938 56.9414C165.738 56.9805 165.548 57 165.367 57H160.211V55.0957H165.353C165.611 55.0957 165.807 55.0298 165.938 54.8979C166.07 54.7661 166.136 54.5757 166.136 54.3267C166.112 53.8188 165.855 53.5649 165.367 53.5649H162.416C161.996 53.5649 161.639 53.4917 161.346 53.3452C161.053 53.1987 160.814 53.0156 160.628 52.7959C160.448 52.5762 160.316 52.3394 160.233 52.0854C160.155 51.8315 160.116 51.5947 160.116 51.375C160.116 50.9502 160.191 50.5938 160.343 50.3057C160.494 50.0127 160.685 49.7759 160.914 49.5952C161.144 49.4146 161.393 49.2852 161.661 49.207C161.93 49.124 162.181 49.0825 162.416 49.0825H167.096V50.9868H162.43C162.333 50.9868 162.254 50.999 162.196 51.0234C162.142 51.043 162.101 51.0723 162.071 51.1113C162.047 51.1455 162.032 51.1846 162.027 51.2285C162.022 51.2676 162.02 51.3066 162.02 51.3457C162.025 51.4238 162.04 51.4849 162.064 51.5288C162.088 51.5728 162.118 51.6045 162.152 51.624C162.191 51.6436 162.232 51.6558 162.276 51.6606C162.325 51.6606 162.372 51.6606 162.416 51.6606H165.367C165.855 51.6606 166.271 51.7485 166.612 51.9243C166.954 52.1001 167.23 52.3223 167.44 52.5908C167.65 52.8545 167.801 53.1426 167.894 53.4551C167.992 53.7676 168.041 54.0581 168.041 54.3267Z" fill="#8C8C8C"/>
<path d="M215.704 37.9403C208.989 39.7485 204.705 42.7878 202.313 47.3275C200.422 50.867 200.383 53.0214 202.081 56.4839C204.319 60.9852 209.182 64.4862 215.82 66.2944C218.405 67.0254 219.486 67.1023 224.233 66.9099C228.053 66.7561 230.292 66.4868 231.951 65.9866C237.817 64.063 242.448 60.639 244.378 56.7148C247.349 50.6362 243.953 43.6342 236.196 39.9024C229.983 36.94 222.149 36.1706 215.704 37.9403ZM220.953 39.1329C220.953 39.2483 220.528 40.1717 220.026 41.172C219.486 42.2107 218.869 44.1343 218.598 45.4424C218.29 46.7889 217.865 47.9816 217.556 48.0585C216.63 48.4432 213.659 47.3275 212.231 46.0964C209.915 44.0959 210.456 42.0953 213.697 40.441C214.508 40.0178 215.82 39.5561 216.592 39.3638C218.251 38.979 220.953 38.8252 220.953 39.1329ZM230.716 39.5946C233.34 40.3256 236.003 42.48 236.003 43.9035C236.003 45.5963 232.183 48.1355 229.597 48.1739C228.401 48.1739 228.362 48.097 227.706 45.3654C227.359 43.865 226.626 41.826 226.124 40.9027C225.622 39.9793 225.198 39.1714 225.198 39.0945C225.198 38.7097 228.671 39.0175 230.716 39.5946ZM224.889 43.8266C225.699 44.7114 226.548 47.5584 226.24 48.3278C226.047 48.828 225.391 48.9434 223.114 48.9434C221.531 48.9434 220.104 48.751 219.988 48.5586C219.525 47.8277 220.914 44.0189 221.956 43.211C223.036 42.3646 223.693 42.5185 224.889 43.8266ZM209.761 48.4432C210.726 49.0203 212.887 49.9437 214.585 50.5207L217.672 51.5595L217.904 54.4449C218.213 58.1767 218.907 61.0237 220.065 63.2935C220.567 64.3323 220.914 65.2556 220.798 65.3711C220.335 65.8712 215.897 64.6016 212.964 63.1781C207.484 60.4851 204.358 56.4839 204.358 52.0981C204.358 50.1745 205.053 47.8661 205.979 46.7505C206.326 46.3273 206.519 46.3273 207.214 46.7889C207.677 47.1352 208.796 47.8661 209.761 48.4432ZM241.638 49.405C243.374 54.5988 240.248 59.908 233.572 63.1781C230.678 64.5631 225.892 65.9097 225.429 65.448C225.313 65.3326 225.738 64.2938 226.317 63.1012C227.359 61.1006 227.668 59.6387 228.555 53.5985L228.864 51.521L231.372 50.6746C234.074 49.7898 237.161 48.2509 238.705 47.0582C239.592 46.3657 239.708 46.3657 240.326 46.9043C240.673 47.2121 241.29 48.3663 241.638 49.405ZM226.587 54.7912C226.008 60.9852 222.959 63.6398 220.953 59.7156C220.181 58.1767 219.216 53.0214 219.64 52.3674C219.756 52.175 221.416 52.0212 223.345 52.0212H226.857L226.587 54.7912Z" fill="#FF1111"/>
<path d="M276.618 45.6487C276.371 45.7725 276.248 46.1747 276.31 46.4841C276.371 46.9481 276.772 47.1028 278.251 47.2266L280.099 47.3813L280.253 52.7954L280.407 58.2095L281.424 58.3023L282.41 58.3951V52.981C282.41 46.8553 282.194 47.3503 285.028 47.1647C286.106 47.0719 286.26 46.9791 286.26 46.2984V45.525L281.639 45.4631C279.113 45.4012 276.833 45.4941 276.618 45.6487Z" fill="#FF1111"/>
<path d="M290.882 45.8653C288.633 47.041 287.647 48.8354 287.647 51.8673C287.647 56.2604 290.512 59.1067 294.394 58.5808C297.721 58.1476 299.446 56.1986 299.6 52.6098C299.785 49.1138 298.891 47.1647 296.55 45.9891C295.102 45.2156 292.206 45.1537 290.882 45.8653ZM295.934 48C297.135 49.0519 297.628 50.5988 297.413 52.7335C297.197 54.7754 296.458 55.8892 294.917 56.477C291.806 57.6526 289.341 54.8064 289.957 50.7226C290.419 47.5978 293.685 46.1128 295.934 48Z" fill="#FF1111"/>
<path d="M301.51 45.7725C301.51 45.9891 302.28 47.3813 303.205 48.8663C304.129 50.3823 305.053 51.8982 305.269 52.2695C305.484 52.6407 305.731 54.1257 305.823 55.5798L305.977 58.2095H306.902H307.826L307.98 55.2704L308.134 52.3313L310.198 49.1138C311.338 47.3194 312.2 45.7416 312.108 45.6178C312.016 45.4941 311.523 45.3703 311.03 45.3703C310.26 45.3703 309.982 45.6178 309.274 46.7935C307.887 49.2066 307.24 50.1038 306.84 50.2276C306.655 50.2894 305.823 49.2376 305.053 47.8763C303.698 45.525 303.544 45.3703 302.558 45.3703C301.911 45.3703 301.51 45.525 301.51 45.7725Z" fill="#FF1111"/>
<path d="M316.852 45.9891C313.556 47.7525 312.847 53.8782 315.651 56.8173C318.085 59.3851 322.613 59.2305 324.708 56.4461C327.019 53.4141 326.249 47.9072 323.26 46.1437C321.566 45.1537 318.578 45.0919 316.852 45.9891ZM322.09 47.7216C323.168 48.4641 323.784 50.011 323.784 51.8672C323.784 54.6207 322.521 56.4461 320.395 56.6936C317.931 57.0029 316.298 55.1157 316.298 51.9601C316.298 48.7116 317.468 47.2266 319.995 47.2266C320.765 47.2266 321.72 47.4431 322.09 47.7216Z" fill="#FF1111"/>
<path d="M327.912 45.5559C327.789 45.6797 327.697 46.1128 327.697 46.4841C327.697 47.1338 327.851 47.1956 329.483 47.2885L331.239 47.3813L331.393 52.7954L331.547 58.2095L332.564 58.3023L333.55 58.3951V53.1976C333.55 49.5469 333.673 47.8453 333.92 47.5978C334.135 47.3813 335.029 47.2266 335.953 47.2266C337.555 47.2266 337.586 47.1956 337.493 46.3603L337.401 45.525L332.749 45.4322C330.223 45.4012 328.035 45.4631 327.912 45.5559Z" fill="#FF1111"/>
<path d="M342.269 45.6178C342.053 45.7416 341.129 47.8763 340.205 50.3204C339.28 52.7954 338.264 55.5489 337.894 56.4461C337.185 58.2095 337.339 58.5189 338.818 58.3023C339.311 58.2405 339.619 57.8383 339.958 56.8792L340.389 55.5798H343.224H346.089L346.674 56.8792C347.198 58.0548 347.383 58.2095 348.43 58.3023C349.046 58.3642 349.57 58.3642 349.57 58.3023C349.539 58.2405 348.399 55.3632 347.013 51.8673C344.548 45.6797 344.456 45.525 343.563 45.4322C343.07 45.4013 342.484 45.4631 342.269 45.6178ZM344.425 50.8773C345.165 52.7645 345.103 53.3213 344.117 53.507C342.977 53.7235 341.56 53.4142 341.56 52.9501C341.56 52.5479 342.669 49.2376 342.977 48.7425C343.224 48.3404 343.747 49.1138 344.425 50.8773Z" fill="#FF1111"/>
<g clip-path="url(#clip0)">
<path d="M63.7001 4.3085C63.7001 2.40488 62.1479 0.861694 60.2334 0.861694H4.76672C2.85213 0.861694 1.30005 2.40488 1.30005 4.3085V28.867H32.5H63.7001V4.3085Z" fill="#BC5213"/>
<path d="M32.5 79.7074C36.5326 79.7074 56.0714 68.6068 61.9946 65.1873C63.0554 64.5749 63.7001 63.4483 63.7001 62.2287V28.867H32.5H1.30005V62.2287C1.30005 63.4483 1.94468 64.5749 3.00551 65.1873C8.92871 68.6068 28.4675 79.7074 32.5 79.7074Z" fill="#BC5213"/>
<path d="M1.30005 28.867H32.5H63.7M1.30005 28.867V62.2287C1.30005 63.4483 1.94468 64.5749 3.00551 65.1873C8.92871 68.6068 28.4675 79.7074 32.5 79.7074C36.5326 79.7074 56.0714 68.6068 61.9946 65.1873C63.0554 64.5749 63.7 63.4483 63.7 62.2287V28.867H1.30005ZM1.30005 28.867V4.3085C1.30005 2.40488 2.85213 0.861694 4.76672 0.861694H60.2334C62.1479 0.861694 63.7 2.40488 63.7 4.3085V28.867H1.30005Z" stroke="#BF9A6B" stroke-width="2"/>
<path d="M5.86612 15.2452V14.9436C6.5375 14.9436 7.01474 14.8271 7.29786 14.5938C7.58097 14.3605 7.72252 13.9705 7.72252 13.4236C7.72252 12.3217 7.20888 11.7709 6.18159 11.7709C6.03599 11.7709 5.82972 11.7909 5.56279 11.8312L5.44146 13.6166V16.15L5.61132 18.5266H4.25239L4.42226 16.138V12.8928L4.20386 11.3004C5.15834 11.1315 5.90657 11.047 6.44852 11.047C8.09057 11.047 8.91162 11.799 8.91162 13.303C8.91162 13.874 8.77 14.3445 8.48692 14.7144C8.20381 15.0763 7.79532 15.3176 7.26146 15.4383L8.68108 17.2961L9.71242 18.418V18.5387L8.07439 18.6231L7.46772 17.3685L5.86612 15.2452ZM11.9928 13.6166V14.3766H13.1576L14.3103 14.256L14.2132 15.1608H11.9928V16.15L12.102 17.6821H13.7036L15.0261 17.5374L14.9048 18.599L13.5823 18.5266H12.1627L10.8037 18.599L10.9736 16.138V13.6046L10.8037 11.228H14.9169L14.8077 12.2172L13.4488 12.0725H12.102L11.9928 13.6166ZM18.2723 15.5106L18.2359 15.0402C18.9396 15.0402 19.4452 14.9195 19.7526 14.6782C20.0599 14.437 20.2136 14.0348 20.2136 13.4719C20.2136 12.3379 19.6798 11.7709 18.612 11.7709C18.4422 11.7709 18.2238 11.7909 17.9568 11.8312L17.8355 13.6166V16.15L18.0054 18.5266H16.6464L16.8163 16.138V12.8928L16.5979 11.3004C17.6009 11.1315 18.3572 11.047 18.8668 11.047C20.5574 11.047 21.4027 11.8151 21.4027 13.3512C21.4027 13.9785 21.2328 14.4852 20.8931 14.8713C20.5614 15.2493 20.0842 15.4825 19.4614 15.571L18.2723 15.5106ZM22.9737 15.3538V13.6046L22.8039 11.228H24.272L24.1143 13.6166V14.9075C24.1143 15.9449 24.2437 16.6888 24.5025 17.1393C24.7694 17.5816 25.2144 17.8028 25.8372 17.8028C26.4681 17.8028 26.9252 17.6057 27.2083 17.2116C27.4995 16.8176 27.6451 16.1782 27.6451 15.2935V13.6166L27.4873 11.228H28.7613L28.5915 13.6046V15.209C28.5915 17.5414 27.6087 18.7076 25.643 18.7076C23.8635 18.7076 22.9737 17.5897 22.9737 15.3538ZM31.7687 13.6166V14.3766H32.9335L34.0862 14.256L33.9891 15.1608H31.7687V16.15L31.8779 17.6821H33.4795L34.8021 17.5374L34.6807 18.599L33.3582 18.5266H31.9386L30.5797 18.599L30.7495 16.138V13.6046L30.5797 11.228H34.6929L34.5837 12.2172L33.2247 12.0725H31.8779L31.7687 13.6166ZM36.0704 18.3215L36.483 17.1031C36.9521 17.4087 37.3323 17.6178 37.6235 17.7304C37.9228 17.843 38.2302 17.8993 38.5456 17.8993C39.0795 17.8993 39.5001 17.7384 39.8075 17.4167C39.8318 17.2961 39.8439 17.1714 39.8439 17.0428C39.8439 16.6647 39.7145 16.3471 39.4556 16.0897C39.2049 15.8323 38.8975 15.6272 38.5335 15.4745C38.1776 15.3217 37.8176 15.1608 37.4536 14.9919C37.0896 14.823 36.7782 14.5817 36.5194 14.2681C36.2686 13.9544 36.1432 13.5643 36.1432 13.0979C36.1432 12.4947 36.394 12.0081 36.8955 11.6382C37.4051 11.2682 38.0724 11.0832 38.8975 11.0832C39.4718 11.0832 40.0097 11.1958 40.5112 11.421L40.1594 12.555C39.4799 12.1046 38.9177 11.8794 38.4728 11.8794C38.036 11.8794 37.5952 12.0162 37.1503 12.2896C37.1503 12.7641 37.2757 13.1541 37.5264 13.4598C37.7772 13.7573 38.0846 13.9866 38.4486 14.1474C38.8126 14.3083 39.1725 14.4691 39.5284 14.63C39.8924 14.7909 40.1998 15.024 40.4506 15.3297C40.7013 15.6272 40.8267 16.0133 40.8267 16.4878C40.8267 17.1312 40.5638 17.6621 40.038 18.0802C39.5204 18.4984 38.8934 18.7076 38.1574 18.7076C37.4213 18.7076 36.7256 18.5789 36.0704 18.3215ZM41.7362 12.1448L41.7968 11.228H45.9828L47.3054 11.0832L47.1841 12.1448L45.8372 12.0725H45.0486L44.9394 13.6166V16.15L45.1092 18.5266H43.7503L43.9202 16.138V13.6046L43.7988 12.0725H43.0708L41.7362 12.1448ZM51.3999 18.7076C50.3242 18.7076 49.487 18.3778 48.8883 17.7183C48.2897 17.0508 47.9905 16.1259 47.9905 14.9436C47.9905 13.7614 48.3181 12.8164 48.9733 12.1086C49.6285 11.4009 50.498 11.047 51.582 11.047C52.6659 11.047 53.5071 11.3768 54.1057 12.0363C54.7043 12.6957 55.0035 13.6166 55.0035 14.7989C55.0035 15.9811 54.6719 16.9301 54.0086 17.6459C53.3534 18.3537 52.4839 18.7076 51.3999 18.7076ZM49.2159 14.9436C49.2159 15.8846 49.4303 16.6165 49.859 17.1393C50.2878 17.654 50.8904 17.9113 51.6669 17.9113C52.1279 17.9113 52.5769 17.8189 53.0137 17.6339C53.224 17.4247 53.4019 17.0508 53.5476 16.5119C53.7012 15.965 53.7781 15.4061 53.7781 14.8351C53.7781 13.862 53.5638 13.122 53.135 12.6153C52.7144 12.1006 52.0996 11.8432 51.2907 11.8432C50.8297 11.8432 50.3929 11.9357 49.9803 12.1207C49.77 12.3217 49.588 12.6998 49.4343 13.2547C49.2887 13.8096 49.2159 14.3726 49.2159 14.9436ZM56.344 18.3215L56.7566 17.1031C57.2257 17.4087 57.6059 17.6178 57.8971 17.7304C58.1964 17.843 58.5038 17.8993 58.8192 17.8993C59.3531 17.8993 59.7737 17.7384 60.0811 17.4167C60.1054 17.2961 60.1175 17.1714 60.1175 17.0428C60.1175 16.6647 59.9881 16.3471 59.7292 16.0897C59.4785 15.8323 59.1711 15.6272 58.8071 15.4745C58.4512 15.3217 58.0912 15.1608 57.7272 14.9919C57.3632 14.823 57.0518 14.5817 56.793 14.2681C56.5422 13.9544 56.4168 13.5643 56.4168 13.0979C56.4168 12.4947 56.6676 12.0081 57.1691 11.6382C57.6787 11.2682 58.346 11.0832 59.1711 11.0832C59.7454 11.0832 60.2833 11.1958 60.7848 11.421L60.433 12.555C59.7535 12.1046 59.1913 11.8794 58.7464 11.8794C58.3096 11.8794 57.8688 12.0162 57.4239 12.2896C57.4239 12.7641 57.5493 13.1541 57.8 13.4598C58.0508 13.7573 58.3582 13.9866 58.7222 14.1474C59.0862 14.3083 59.4461 14.4691 59.802 14.63C60.166 14.7909 60.4734 15.024 60.7242 15.3297C60.9749 15.6272 61.1003 16.0133 61.1003 16.4878C61.1003 17.1312 60.8374 17.6621 60.3116 18.0802C59.794 18.4984 59.167 18.7076 58.431 18.7076C57.6949 18.7076 56.9992 18.5789 56.344 18.3215Z" fill="white"/>
<path d="M15.8951 41.8063V41.3324C16.9501 41.3324 17.7001 41.1491 18.145 40.7826C18.5898 40.4161 18.8123 39.8031 18.8123 38.9438C18.8123 37.2123 18.0052 36.3466 16.3908 36.3466C16.162 36.3466 15.8379 36.3782 15.4184 36.4414L15.2278 39.2471V43.2281L15.4947 46.9628H13.3592L13.6262 43.2092V38.1096L13.283 35.6072C14.7829 35.3418 15.9586 35.2091 16.8103 35.2091C19.3906 35.2091 20.6808 36.3908 20.6808 38.7542C20.6808 39.6515 20.4584 40.3908 20.0135 40.9722C19.5686 41.5409 18.9267 41.9201 18.0878 42.1096L20.3186 45.0291L21.9392 46.7921V46.9817L19.3652 47.1144L18.4119 45.1428L15.8951 41.8063ZM23.7305 41.9769V39.2281L23.4635 35.4935H25.7706L25.5227 39.2471V41.2755C25.5227 42.9059 25.7261 44.0749 26.1329 44.7826C26.5523 45.4778 27.2515 45.8253 28.2302 45.8253C29.2217 45.8253 29.9399 45.5157 30.3847 44.8964C30.8423 44.2771 31.0711 43.2723 31.0711 41.8822V39.2471L30.8233 35.4935H32.8253L32.5583 39.2281V41.7495C32.5583 45.4145 31.0139 47.2471 27.9251 47.2471C25.1286 47.2471 23.7305 45.4904 23.7305 41.9769ZM34.5386 36.9343L34.6339 35.4935H41.2119L43.2902 35.266L43.0995 36.9343L40.9831 36.8205H39.7438L39.5722 39.2471V43.2281L39.8391 46.9628H37.7036L37.9706 43.2092V39.2281L37.7799 36.8205H36.6359L34.5386 36.9343ZM42.9316 46.9817L46.9928 36.8395L47.3551 35.5314L48.8614 35.4177L53.056 46.9628H50.8252L50.2532 44.1002H45.5438L44.8574 46.9817H42.9316ZM48.0034 37.3513L46.0776 42.7732H49.8147L48.0034 37.3513ZM24.0226 69.1705L23.9463 68.071C25.4971 67.9699 26.6983 67.6287 27.5499 67.0473C28.4143 66.4659 28.8465 65.7076 28.8465 64.7724C28.8465 64.0268 28.5859 63.4896 28.0647 63.161C27.5435 62.8198 26.6538 62.6176 25.3954 62.5544L25.3001 61.4928C27.5118 61.1642 28.6177 60.387 28.6177 59.161C28.6177 58.15 27.9313 57.6444 26.5585 57.6444L24.423 58.4596L23.8891 56.9999C24.7407 56.608 25.7131 56.4122 26.8063 56.4122C27.9122 56.4122 28.7702 56.627 29.3803 57.0567C29.9905 57.4865 30.2955 58.0552 30.2955 58.7629C30.2955 59.4706 30.0603 60.0899 29.5901 60.6207C29.1197 61.1389 28.4461 61.5496 27.5689 61.853C28.4842 61.9161 29.2151 62.2321 29.7617 62.8008C30.3209 63.3569 30.6006 64.0647 30.6006 64.9241C30.6006 66.1247 29.9777 67.1231 28.7321 67.9193C27.4991 68.7282 25.9293 69.1453 24.0226 69.1705ZM35.627 55.9193C35.4872 56.3743 35.4173 56.823 35.4173 57.2653C35.4173 58.1752 36.0719 58.9651 37.3811 59.6349C38.0803 59.2431 38.5887 58.864 38.9065 58.4975C39.2243 58.1184 39.3831 57.695 39.3831 57.2274C39.3831 56.7471 39.1797 56.349 38.773 56.033C38.3663 55.7045 37.8387 55.5401 37.1905 55.5401C36.555 55.5401 36.0337 55.6665 35.627 55.9193ZM37.4193 60.9999C35.8939 61.695 35.1313 62.5986 35.1313 63.7108C35.1313 64.3048 35.3473 64.8166 35.7795 65.2464C36.2244 65.6634 36.7901 65.8719 37.4765 65.8719C38.1629 65.8719 38.7412 65.7266 39.2115 65.4359C39.4912 64.8799 39.631 64.3174 39.631 63.7487C39.631 63.18 39.4594 62.6871 39.1162 62.27C38.7858 61.853 38.2201 61.4296 37.4193 60.9999ZM37.3239 67.1042C36.1927 67.1042 35.2647 66.7946 34.5402 66.1753C33.8284 65.5434 33.4725 64.8103 33.4725 63.9762C33.4725 63.1294 33.6631 62.4533 34.0445 61.9478C34.4386 61.4296 35.1376 60.8861 36.1418 60.3174C35.3283 59.8751 34.7436 59.4137 34.3877 58.9335C34.0445 58.4533 33.8729 57.8846 33.8729 57.2274C33.8729 56.3806 34.2161 55.6855 34.9025 55.142C35.6016 54.5986 36.4469 54.3269 37.4383 54.3269C38.4426 54.3269 39.2751 54.6049 39.9361 55.161C40.5971 55.717 40.9275 56.3806 40.9275 57.1515C40.9275 58.3269 40.1967 59.3758 38.7349 60.2985C40.4763 61.1705 41.347 62.2827 41.347 63.635C41.347 64.6334 40.9594 65.4612 40.1839 66.1184C39.4085 66.7756 38.4552 67.1042 37.3239 67.1042Z" fill="#FFFCFC"/>
</g>
<defs>
<linearGradient id="paint0_linear" x1="213" y1="32" x2="213" y2="33" gradientUnits="userSpaceOnUse">
<stop stop-color="#D91E50"/>
<stop offset="1" stop-color="#D91E50" stop-opacity="0.43"/>
<stop offset="1" stop-color="#D91E50" stop-opacity="0"/>
</linearGradient>
<clipPath id="clip0">
<rect width="65" height="81" fill="white"/>
</clipPath>
</defs>
</svg>
