<?xml version="1.0" standalone="no"?>
<!DOCTYPE svg PUBLIC "-//W3C//DTD SVG 20010904//EN"
 "http://www.w3.org/TR/2001/REC-SVG-20010904/DTD/svg10.dtd">
<svg version="1.0" xmlns="http://www.w3.org/2000/svg"
 width="400.000000pt" height="533.000000pt" viewBox="0 0 400.000000 533.000000"
 preserveAspectRatio="xMidYMid meet">

<g transform="translate(0.000000,533.000000) scale(0.100000,-0.100000)"
fill="#000000" stroke="none">
<path d="M464 3226 c-174 -47 -285 -126 -347 -244 -49 -92 -50 -148 -6 -238
58 -117 184 -208 356 -255 67 -19 95 -21 218 -16 99 4 157 11 200 24 152 50
272 139 322 241 77 158 -11 340 -212 437 -161 77 -364 97 -531 51z m136 -31
c0 -3 -11 -27 -24 -53 -14 -27 -30 -77 -37 -111 -8 -35 -19 -66 -27 -68 -24
-10 -101 19 -138 51 -60 52 -46 104 38 147 21 11 55 23 75 28 43 10 113 14
113 6z m253 -12 c68 -19 137 -75 137 -112 0 -44 -99 -110 -166 -111 -31 0 -32
2 -49 73 -9 39 -28 92 -41 116 -13 24 -24 45 -24 47 0 10 90 2 143 -13z m-151
-110 c21 -23 43 -97 35 -117 -5 -13 -22 -16 -81 -16 -41 0 -78 5 -81 10 -12
19 24 118 51 139 28 22 45 18 76 -16z m-392 -120 c25 -15 81 -39 125 -54 l80
-27 6 -75 c8 -97 26 -171 56 -230 13 -27 22 -51 19 -54 -12 -13 -127 20 -203
57 -142 70 -223 174 -223 288 0 50 18 110 42 139 9 11 14 11 32 -1 12 -9 41
-28 66 -43z m826 -25 c45 -135 -36 -273 -209 -358 -75 -36 -199 -71 -211 -59
-3 3 8 30 23 61 27 52 35 90 58 247 l8 54 65 22 c70 23 150 63 190 94 23 18
26 18 42 4 9 -8 25 -38 34 -65z m-390 -140 c-15 -161 -94 -230 -146 -128 -20
40 -45 174 -34 191 3 5 46 9 96 9 l91 0 -7 -72z"/>
<path d="M1572 3071 c-8 -4 -12 -17 -10 -27 2 -15 15 -20 63 -24 l60 -5 5
-175 5 -175 33 -3 32 -3 0 175 c0 198 -7 182 85 188 35 3 40 6 40 28 l0 25
-150 2 c-82 2 -156 -1 -163 -6z"/>
<path d="M2035 3064 c-73 -38 -105 -96 -105 -194 0 -142 93 -234 219 -217 108
14 164 77 169 193 6 113 -23 176 -99 214 -47 25 -141 27 -184 4z m164 -69 c39
-34 55 -84 48 -153 -7 -66 -31 -102 -81 -121 -101 -38 -181 54 -161 186 15
101 121 149 194 88z"/>
<path d="M2380 3067 c0 -7 25 -52 55 -100 30 -49 60 -98 67 -110 7 -12 15 -60
18 -107 l5 -85 30 0 30 0 5 95 5 95 67 104 c37 58 65 109 62 113 -3 4 -19 8
-35 8 -25 0 -34 -8 -57 -46 -45 -78 -66 -107 -79 -111 -6 -2 -33 32 -58 76
-44 76 -49 81 -81 81 -21 0 -34 -5 -34 -13z"/>
<path d="M2878 3060 c-107 -57 -130 -255 -39 -350 79 -83 226 -78 294 12 75
98 50 276 -47 333 -55 32 -152 34 -208 5z m170 -56 c35 -24 55 -74 55 -134 0
-89 -41 -148 -110 -156 -80 -10 -133 51 -133 153 0 105 38 153 120 153 25 0
56 -7 68 -16z"/>
<path d="M3237 3074 c-4 -4 -7 -18 -7 -30 0 -21 5 -23 58 -26 l57 -3 5 -175 5
-175 33 -3 32 -3 0 168 c0 118 4 173 12 181 7 7 36 12 66 12 52 0 53 1 50 28
l-3 27 -151 3 c-82 1 -153 -1 -157 -4z"/>
<path d="M3703 3072 c-7 -4 -37 -73 -67 -152 -30 -80 -63 -169 -75 -198 -23
-57 -18 -67 30 -60 16 2 26 15 37 46 l14 42 92 0 93 0 19 -42 c17 -38 23 -43
57 -46 20 -2 37 -2 37 0 -1 2 -38 95 -83 208 -80 200 -83 205 -112 208 -16 1
-35 -1 -42 -6z m70 -170 c24 -61 22 -79 -10 -85 -37 -7 -83 3 -83 18 0 13 36
120 46 136 8 13 25 -12 47 -69z"/>
</g>
</svg>
