<svg width="86" height="86" viewBox="0 0 86 86" fill="none" xmlns="http://www.w3.org/2000/svg">
<path d="M69.5818 0H16.4182C7.35067 0 0 7.35067 0 16.4182V69.5818C0 78.6493 7.35067 86 16.4182 86H69.5818C78.6493 86 86 78.6493 86 69.5818V16.4182C86 7.35067 78.6493 0 69.5818 0Z" fill="#BC5213"/>
<path d="M56.0043 46.841C56.43 46.841 58.0262 47.5632 60.7933 49.0076C63.5601 50.4522 65.0255 51.3222 65.1893 51.6175C65.2547 51.7817 65.2876 52.028 65.2876 52.3561C65.2876 53.4395 65.0092 54.6869 64.4526 56.0987C63.9286 57.3789 62.766 58.4541 60.9651 59.3239C59.1642 60.1939 57.494 60.6289 55.955 60.6289C54.0886 60.6289 50.9777 59.6112 46.6226 57.5759C43.4135 56.0987 40.6302 54.1617 38.2726 51.7653C35.9149 49.3688 33.4916 46.3322 31.0031 42.6553C28.6453 39.1428 27.4829 35.9585 27.5156 33.1023V32.7085C27.6139 29.7211 28.8255 27.1276 31.1504 24.9282C31.9364 24.206 32.7876 23.8448 33.7045 23.8448C33.9011 23.8448 34.1956 23.8694 34.5887 23.9187C34.9816 23.9679 35.2927 23.9925 35.522 23.9925C36.1441 23.9925 36.578 24.0993 36.8235 24.3127C37.0692 24.5259 37.3229 24.9774 37.5848 25.6668C37.8469 26.3233 38.3872 27.7678 39.2057 30C40.0245 32.2325 40.4338 33.4635 40.4338 33.6933C40.4338 34.3827 39.8689 35.3266 38.7392 36.5247C37.6094 37.723 37.0446 38.4863 37.0446 38.8145C37.0446 39.0443 37.1265 39.2906 37.2901 39.5531C38.4036 41.9495 40.0735 44.1982 42.3002 46.2994C44.1339 48.0393 46.6062 49.6972 49.7171 51.2729C50.1099 51.5026 50.4702 51.6175 50.7977 51.6175C51.2889 51.6175 52.173 50.8214 53.4501 49.2292C54.7272 47.6371 55.5786 46.841 56.0043 46.841ZM46.0331 72.9394C50.1918 72.9394 54.1787 72.1187 57.9934 70.4773C61.8083 68.8359 65.0909 66.6364 67.8416 63.879C70.5922 61.1213 72.7862 57.8302 74.4235 54.0058C76.0608 50.1813 76.8794 46.1845 76.8794 42.0152C76.8794 37.846 76.0608 33.8493 74.4235 30.0247C72.7862 26.2002 70.5922 22.9091 67.8416 20.1517C65.0909 17.394 61.8083 15.1946 57.9934 13.5531C54.1787 11.9117 50.1918 11.091 46.0331 11.091C41.8745 11.091 37.8878 11.9117 34.0729 13.5531C30.258 15.1946 26.9753 17.394 24.2247 20.1517C21.4741 22.9091 19.2802 26.2002 17.6429 30.0247C16.0056 33.8493 15.187 37.846 15.187 42.0152C15.187 48.6794 17.1517 54.7198 21.0812 60.1364L17.2008 71.61L29.0874 67.8183C34.2613 71.2323 39.9097 72.9394 46.0331 72.9394ZM46.0331 4.88647C51.0432 4.88647 55.8323 5.87133 60.4002 7.84102C64.9682 9.81072 68.9058 12.4534 72.2131 15.7691C75.5204 19.0847 78.1565 23.0323 80.1212 27.6118C82.0859 32.1915 83.0683 36.9926 83.0683 42.0152C83.0683 47.038 82.0859 51.8392 80.1212 56.4187C78.1565 60.9982 75.5204 64.9457 72.2131 68.2614C68.9058 71.5771 64.9682 74.2199 60.4002 76.1895C55.8323 78.1593 51.0432 79.144 46.0331 79.144C39.6478 79.144 33.6718 77.601 28.1051 74.5152L7.6228 81.1137L14.3029 61.1705C10.7664 55.327 8.99812 48.9421 8.99812 42.0152C8.99812 36.9926 9.98047 32.1915 11.9452 27.6118C13.9099 23.0323 16.5459 19.0847 19.8532 15.7691C23.1605 12.4534 27.0981 9.81072 31.6661 7.84102C36.234 5.87133 41.0231 4.88647 46.0331 4.88647Z" fill="white"/>
</svg>
