<svg width="75" height="94" viewBox="0 0 75 94" fill="none" xmlns="http://www.w3.org/2000/svg">
<path d="M73.5 5C73.5 2.79086 71.7091 1 69.5 1H5.5C3.29086 1 1.5 2.79086 1.5 5V33.5H37.5H73.5V5Z" fill="#BC5213"/>
<path d="M37.5 92.5C42.1529 92.5 64.6977 79.6178 71.5322 75.6495C72.7562 74.9388 73.5 73.6314 73.5 72.216V33.5H37.5H1.5V72.216C1.5 73.6314 2.2438 74.9388 3.46784 75.6495C10.3023 79.6178 32.8471 92.5 37.5 92.5Z" fill="#BC5213"/>
<path d="M1.5 33.5V72.216C1.5 73.6314 2.2438 74.9388 3.46784 75.6495C10.3023 79.6178 32.8471 92.5 37.5 92.5C42.1529 92.5 64.6977 79.6178 71.5322 75.6495C72.7562 74.9388 73.5 73.6314 73.5 72.216V33.5M1.5 33.5V5C1.5 2.79086 3.29086 1 5.5 1H69.5C71.7091 1 73.5 2.79086 73.5 5V33.5M1.5 33.5H37.5H73.5" stroke="#BF9A6B" stroke-width="2"/>
<path d="M6.76847 17.692V17.342C7.54314 17.342 8.0938 17.2067 8.42047 16.936C8.74714 16.6653 8.91047 16.2127 8.91047 15.578C8.91047 14.2993 8.3178 13.66 7.13247 13.66C6.96447 13.66 6.72647 13.6833 6.41847 13.73L6.27847 15.802V18.742L6.47447 21.5H4.90647L5.10247 18.728V14.962L4.85047 13.114C5.9518 12.918 6.81514 12.82 7.44047 12.82C9.33514 12.82 10.2825 13.6927 10.2825 15.438C10.2825 16.1007 10.1191 16.6467 9.79247 17.076C9.4658 17.496 8.99447 17.776 8.37847 17.916L10.0165 20.072L11.2065 21.374V21.514L9.31647 21.612L8.61647 20.156L6.76847 17.692ZM13.8377 15.802V16.684H15.1817L16.5117 16.544L16.3997 17.594H13.8377V18.742L13.9637 20.52H15.8117L17.3377 20.352L17.1977 21.584L15.6717 21.5H14.0337L12.4657 21.584L12.6617 18.728V15.788L12.4657 13.03H17.2117L17.0857 14.178L15.5177 14.01H13.9637L13.8377 15.802ZM21.0833 18L21.0413 17.454C21.8533 17.454 22.4366 17.314 22.7913 17.034C23.1459 16.754 23.3233 16.2873 23.3233 15.634C23.3233 14.318 22.7073 13.66 21.4753 13.66C21.2793 13.66 21.0273 13.6833 20.7193 13.73L20.5793 15.802V18.742L20.7753 21.5H19.2073L19.4033 18.728V14.962L19.1513 13.114C20.3086 12.918 21.1813 12.82 21.7693 12.82C23.7199 12.82 24.6953 13.7113 24.6953 15.494C24.6953 16.222 24.4993 16.81 24.1073 17.258C23.7246 17.6967 23.1739 17.9673 22.4553 18.07L21.0833 18ZM26.508 17.818V15.788L26.312 13.03H28.006L27.824 15.802V17.3C27.824 18.504 27.9734 19.3673 28.272 19.89C28.58 20.4033 29.0934 20.66 29.812 20.66C30.54 20.66 31.0674 20.4313 31.394 19.974C31.73 19.5167 31.898 18.7747 31.898 17.748V15.802L31.716 13.03H33.186L32.99 15.788V17.65C32.99 20.3567 31.856 21.71 29.588 21.71C27.5347 21.71 26.508 20.4127 26.508 17.818ZM36.6561 15.802V16.684H38.0001L39.3301 16.544L39.2181 17.594H36.6561V18.742L36.7821 20.52H38.6301L40.1561 20.352L40.0161 21.584L38.4901 21.5H36.8521L35.2841 21.584L35.4801 18.728V15.788L35.2841 13.03H40.0301L39.9041 14.178L38.3361 14.01H36.7821L36.6561 15.802ZM41.6196 21.262L42.0956 19.848C42.6369 20.2027 43.0756 20.4453 43.4116 20.576C43.7569 20.7067 44.1116 20.772 44.4756 20.772C45.0916 20.772 45.5769 20.5853 45.9316 20.212C45.9596 20.072 45.9736 19.9273 45.9736 19.778C45.9736 19.3393 45.8243 18.9707 45.5256 18.672C45.2363 18.3733 44.8816 18.1353 44.4616 17.958C44.0509 17.7807 43.6356 17.594 43.2156 17.398C42.7956 17.202 42.4363 16.922 42.1376 16.558C41.8483 16.194 41.7036 15.7413 41.7036 15.2C41.7036 14.5 41.9929 13.9353 42.5716 13.506C43.1596 13.0767 43.9296 12.862 44.8816 12.862C45.5443 12.862 46.1649 12.9927 46.7436 13.254L46.3376 14.57C45.5536 14.0473 44.9049 13.786 44.3916 13.786C43.8876 13.786 43.3789 13.9447 42.8656 14.262C42.8656 14.8127 43.0103 15.2653 43.2996 15.62C43.5889 15.9653 43.9436 16.2313 44.3636 16.418C44.7836 16.6047 45.1989 16.7913 45.6096 16.978C46.0296 17.1647 46.3843 17.4353 46.6736 17.79C46.9629 18.1353 47.1076 18.5833 47.1076 19.134C47.1076 19.8807 46.8043 20.4967 46.1976 20.982C45.6003 21.4673 44.8769 21.71 44.0276 21.71C43.1783 21.71 42.3756 21.5607 41.6196 21.262ZM48.157 14.094L48.227 13.03H53.057L54.583 12.862L54.443 14.094L52.889 14.01H51.979L51.853 15.802V18.742L52.049 21.5H50.481L50.677 18.728V15.788L50.537 14.01H49.697L48.157 14.094ZM59.3075 21.71C58.0662 21.71 57.1002 21.3273 56.4095 20.562C55.7188 19.7873 55.3735 18.714 55.3735 17.342C55.3735 15.97 55.7515 14.8733 56.5075 14.052C57.2635 13.2307 58.2668 12.82 59.5175 12.82C60.7682 12.82 61.7388 13.2027 62.4295 13.968C63.1202 14.7333 63.4655 15.802 63.4655 17.174C63.4655 18.546 63.0828 19.6473 62.3175 20.478C61.5615 21.2993 60.5582 21.71 59.3075 21.71ZM56.7875 17.342C56.7875 18.434 57.0348 19.2833 57.5295 19.89C58.0242 20.4873 58.7195 20.786 59.6155 20.786C60.1475 20.786 60.6655 20.6787 61.1695 20.464C61.4122 20.2213 61.6175 19.7873 61.7855 19.162C61.9628 18.5273 62.0515 17.8787 62.0515 17.216C62.0515 16.0867 61.8042 15.228 61.3095 14.64C60.8242 14.0427 60.1148 13.744 59.1815 13.744C58.6495 13.744 58.1455 13.8513 57.6695 14.066C57.4268 14.2993 57.2168 14.738 57.0395 15.382C56.8715 16.026 56.7875 16.6793 56.7875 17.342ZM65.0122 21.262L65.4882 19.848C66.0295 20.2027 66.4682 20.4453 66.8042 20.576C67.1495 20.7067 67.5042 20.772 67.8682 20.772C68.4842 20.772 68.9695 20.5853 69.3242 20.212C69.3522 20.072 69.3662 19.9273 69.3662 19.778C69.3662 19.3393 69.2169 18.9707 68.9182 18.672C68.6289 18.3733 68.2742 18.1353 67.8542 17.958C67.4435 17.7807 67.0282 17.594 66.6082 17.398C66.1882 17.202 65.8289 16.922 65.5302 16.558C65.2409 16.194 65.0962 15.7413 65.0962 15.2C65.0962 14.5 65.3855 13.9353 65.9642 13.506C66.5522 13.0767 67.3222 12.862 68.2742 12.862C68.9369 12.862 69.5575 12.9927 70.1362 13.254L69.7302 14.57C68.9462 14.0473 68.2975 13.786 67.7842 13.786C67.2802 13.786 66.7715 13.9447 66.2582 14.262C66.2582 14.8127 66.4029 15.2653 66.6922 15.62C66.9815 15.9653 67.3362 16.2313 67.7562 16.418C68.1762 16.6047 68.5915 16.7913 69.0022 16.978C69.4222 17.1647 69.7769 17.4353 70.0662 17.79C70.3555 18.1353 70.5002 18.5833 70.5002 19.134C70.5002 19.8807 70.1969 20.4967 69.5902 20.982C68.9929 21.4673 68.2695 21.71 67.4202 21.71C66.5709 21.71 65.7682 21.5607 65.0122 21.262Z" fill="white"/>
<path d="M18.3404 48.516V47.966C19.5577 47.966 20.4231 47.7533 20.9364 47.328C21.4497 46.9027 21.7064 46.1913 21.7064 45.194C21.7064 43.1847 20.7751 42.18 18.9124 42.18C18.6484 42.18 18.2744 42.2167 17.7904 42.29L17.5704 45.546V50.166L17.8784 54.5H15.4144L15.7224 50.144V44.226L15.3264 41.322C17.0571 41.014 18.4137 40.86 19.3964 40.86C22.3737 40.86 23.8624 42.2313 23.8624 44.974C23.8624 46.0153 23.6057 46.8733 23.0924 47.548C22.5791 48.208 21.8384 48.648 20.8704 48.868L23.4444 52.256L25.3144 54.302V54.522L22.3444 54.676L21.2444 52.388L18.3404 48.516ZM27.3812 48.714V45.524L27.0732 41.19H29.7352L29.4492 45.546V47.9C29.4492 49.792 29.6839 51.1487 30.1532 51.97C30.6372 52.7767 31.4439 53.18 32.5732 53.18C33.7172 53.18 34.5459 52.8207 35.0592 52.102C35.5872 51.3833 35.8512 50.2173 35.8512 48.604V45.546L35.5652 41.19H37.8752L37.5672 45.524V48.45C37.5672 52.7033 35.7852 54.83 32.2212 54.83C28.9945 54.83 27.3812 52.7913 27.3812 48.714ZM39.8521 42.862L39.9621 41.19H47.5521L49.9501 40.926L49.7301 42.862L47.2881 42.73H45.8581L45.6601 45.546V50.166L45.9681 54.5H43.5041L43.8121 50.144V45.524L43.5921 42.73H42.2721L39.8521 42.862ZM49.5364 54.522L54.2224 42.752L54.6404 41.234L56.3784 41.102L61.2184 54.5H58.6444L57.9844 51.178H52.5504L51.7584 54.522H49.5364ZM55.3884 43.346L53.1664 49.638H57.4784L55.3884 43.346ZM27.7183 80.272L27.6303 78.996C29.4196 78.8787 30.8056 78.4827 31.7883 77.808C32.7856 77.1333 33.2843 76.2533 33.2843 75.168C33.2843 74.3027 32.9836 73.6793 32.3823 73.298C31.7809 72.902 30.7543 72.6673 29.3023 72.594L29.1923 71.362C31.7443 70.9807 33.0203 70.0787 33.0203 68.656C33.0203 67.4827 32.2283 66.896 30.6443 66.896L28.1803 67.842L27.5643 66.148C28.5469 65.6933 29.6689 65.466 30.9303 65.466C32.2063 65.466 33.1963 65.7153 33.9003 66.214C34.6043 66.7127 34.9563 67.3727 34.9563 68.194C34.9563 69.0153 34.6849 69.734 34.1423 70.35C33.5996 70.9513 32.8223 71.428 31.8102 71.78C32.8663 71.8533 33.7096 72.22 34.3403 72.88C34.9856 73.5253 35.3083 74.3467 35.3083 75.344C35.3083 76.7373 34.5896 77.896 33.1523 78.82C31.7296 79.7587 29.9183 80.2427 27.7183 80.272ZM41.108 64.894C40.9467 65.422 40.866 65.9427 40.866 66.456C40.866 67.512 41.6213 68.4287 43.132 69.206C43.9387 68.7513 44.5253 68.3113 44.892 67.886C45.2587 67.446 45.442 66.9547 45.442 66.412C45.442 65.8547 45.2073 65.3927 44.738 65.026C44.2687 64.6447 43.66 64.454 42.912 64.454C42.1787 64.454 41.5773 64.6007 41.108 64.894ZM43.176 70.79C41.416 71.5967 40.536 72.6453 40.536 73.936C40.536 74.6253 40.7853 75.2193 41.284 75.718C41.7973 76.202 42.45 76.444 43.242 76.444C44.034 76.444 44.7013 76.2753 45.244 75.938C45.5667 75.2927 45.728 74.64 45.728 73.98C45.728 73.32 45.53 72.748 45.134 72.264C44.7527 71.78 44.1 71.2887 43.176 70.79ZM43.066 77.874C41.7607 77.874 40.69 77.5147 39.854 76.796C39.0327 76.0627 38.622 75.212 38.622 74.244C38.622 73.2613 38.842 72.4767 39.282 71.89C39.7367 71.2887 40.5433 70.658 41.702 69.998C40.7633 69.4847 40.0887 68.9493 39.678 68.392C39.282 67.8347 39.084 67.1747 39.084 66.412C39.084 65.4293 39.48 64.6227 40.272 63.992C41.0787 63.3613 42.054 63.046 43.198 63.046C44.3567 63.046 45.3173 63.3687 46.08 64.014C46.8427 64.6593 47.224 65.4293 47.224 66.324C47.224 67.688 46.3807 68.9053 44.694 69.976C46.7033 70.988 47.708 72.2787 47.708 73.848C47.708 75.0067 47.2607 75.9673 46.366 76.73C45.4713 77.4927 44.3713 77.874 43.066 77.874Z" fill="#FFFCFC"/>
</svg>
